HIERARCHY
ROOT Hips
{
	OFFSET 0.000000 35.082581 0.000000
	CHANNELS 6 Xposition Yposition Zposition Xrotation Yrotation Zrotation 
	JOINT Spine
	{
		OFFSET 0.000000 6.876099 0.125700
		CHANNELS 3 Xrotation Yrotation Zrotation
		JOINT Spine1
		{
			OFFSET 0.000000 5.730043 0.104720
			CHANNELS 3 Xrotation Yrotation Zrotation
			JOINT Spine1_split
			{
				OFFSET 0.000000 5.730043 0.104720
				CHANNELS 3 Xrotation Yrotation Zrotation
				JOINT Spine2
				{
					OFFSET 0.000000 5.730043 0.104720
					CHANNELS 3 Xrotation Yrotation Zrotation
					JOINT Neck
					{
						OFFSET 0.000000 10.314075 0.188496
						CHANNELS 3 Xrotation Yrotation Zrotation
						JOINT Head
						{
							OFFSET 0.000000 7.643700 -2.377400
							CHANNELS 3 Xrotation Yrotation Zrotation
							JOINT HeadTop_End
							{
								OFFSET 0.000000 43.788605 -13.619600
								CHANNELS 3 Xrotation Yrotation Zrotation
								End Site
								{
									OFFSET 0.000000 0.000000 0.000000
								}
							}
						}
					}
					JOINT LeftShoulder
					{
						OFFSET 2.196100 4.412489 0.087492
						CHANNELS 3 Xrotation Yrotation Zrotation
						JOINT LeftShoulder_split
						{
							OFFSET 2.196100 4.412489 0.087492
							CHANNELS 3 Xrotation Yrotation Zrotation
							JOINT LeftArm
							{
								OFFSET 8.771219 -2.981674 -0.026999
								CHANNELS 3 Xrotation Yrotation Zrotation
								JOINT LeftForeArm
								{
									OFFSET 8.512804 0.000000 -0.000000
									CHANNELS 3 Xrotation Yrotation Zrotation
									JOINT LeftHand
									{
										OFFSET 18.484802 0.000000 -0.000000
										CHANNELS 3 Xrotation Yrotation Zrotation
										JOINT LeftHandThumb1
										{
											OFFSET 2.499420 -1.158070 2.653252
											CHANNELS 3 Xrotation Yrotation Zrotation
											JOINT LeftHandThumb2
											{
												OFFSET 2.370079 -1.368366 1.368366
												CHANNELS 3 Xrotation Yrotation Zrotation
												JOINT LeftHandThumb3
												{
													OFFSET 2.676727 -1.545410 1.545409
													CHANNELS 3 Xrotation Yrotation Zrotation
													JOINT LeftHandThumb4
													{
														OFFSET 1.692226 -0.977005 0.977007
														CHANNELS 3 Xrotation Yrotation Zrotation
														End Site
														{
															OFFSET 0.000000 0.000000 0.000000
														}
													}
												}
											}
										}
										JOINT LeftHandIndex1
										{
											OFFSET 7.924831 -0.457527 2.345128
											CHANNELS 3 Xrotation Yrotation Zrotation
											JOINT LeftHandIndex2
											{
												OFFSET 3.643303 0.000000 0.000000
												CHANNELS 3 Xrotation Yrotation Zrotation
												JOINT LeftHandIndex3
												{
													OFFSET 3.810799 0.000000 0.000000
													CHANNELS 3 Xrotation Yrotation Zrotation
													JOINT LeftHandIndex4
													{
														OFFSET 2.403702 0.000000 0.000000
														CHANNELS 3 Xrotation Yrotation Zrotation
														End Site
														{
															OFFSET 0.000000 0.000000 0.000000
														}
													}
												}
											}
										}
										JOINT LeftHandMiddle1
										{
											OFFSET 8.563995 0.000000 -0.000000
											CHANNELS 3 Xrotation Yrotation Zrotation
											JOINT LeftHandMiddle2
											{
												OFFSET 3.861618 0.000000 0.000000
												CHANNELS 3 Xrotation Yrotation Zrotation
												JOINT LeftHandMiddle3
												{
													OFFSET 3.701603 0.000000 0.000000
													CHANNELS 3 Xrotation Yrotation Zrotation
													JOINT LeftHandMiddle4
													{
														OFFSET 2.322544 0.000000 0.000000
														CHANNELS 3 Xrotation Yrotation Zrotation
														End Site
														{
															OFFSET 0.000000 0.000000 0.000000
														}
													}
												}
											}
										}
										JOINT LeftHandRing1
										{
											OFFSET 8.426460 -0.424637 -3.286992
											CHANNELS 3 Xrotation Yrotation Zrotation
											JOINT LeftHandRing2
											{
												OFFSET 3.126408 0.000000 0.000000
												CHANNELS 3 Xrotation Yrotation Zrotation
												JOINT LeftHandRing3
												{
													OFFSET 3.085026 0.000000 0.000000
													CHANNELS 3 Xrotation Yrotation Zrotation
													JOINT LeftHandRing4
													{
														OFFSET 1.644005 0.000000 0.000000
														CHANNELS 3 Xrotation Yrotation Zrotation
														End Site
														{
															OFFSET 0.000000 0.000000 0.000000
														}
													}
												}
											}
										}
									}
								}
							}
						}
					}
					JOINT RightShoulder
					{
						OFFSET -2.196100 4.412496 0.070690
						CHANNELS 3 Xrotation Yrotation Zrotation
						JOINT RightShoulder_split
						{
							OFFSET -2.196100 4.412496 0.070690
							CHANNELS 3 Xrotation Yrotation Zrotation
							JOINT RightArm
							{
								OFFSET -8.771282 -2.981682 -0.094208
								CHANNELS 3 Xrotation Yrotation Zrotation
								JOINT RightForeArm
								{
									OFFSET -8.494598 0.000000 0.000000
									CHANNELS 3 Xrotation Yrotation Zrotation
									JOINT RightHand
									{
										OFFSET -18.483803 0.000000 0.000001
										CHANNELS 3 Xrotation Yrotation Zrotation
										JOINT RightHandThumb1
										{
											OFFSET -2.527351 -1.008072 2.575253
											CHANNELS 3 Xrotation Yrotation Zrotation
											JOINT RightHandThumb2
											{
												OFFSET -2.321518 -1.340328 1.340329
												CHANNELS 3 Xrotation Yrotation Zrotation
												JOINT RightHandThumb3
												{
													OFFSET -2.657753 -1.534454 1.534455
													CHANNELS 3 Xrotation Yrotation Zrotation
													JOINT RightHandThumb4
													{
														OFFSET -1.807510 -1.043568 1.043567
														CHANNELS 3 Xrotation Yrotation Zrotation
														End Site
														{
															OFFSET 0.000000 0.000000 0.000000
														}
													}
												}
											}
										}
										JOINT RightHandIndex1
										{
											OFFSET -8.811420 0.015533 2.887987
											CHANNELS 3 Xrotation Yrotation Zrotation
											JOINT RightHandIndex2
											{
												OFFSET -3.537502 0.000000 0.000000
												CHANNELS 3 Xrotation Yrotation Zrotation
												JOINT RightHandIndex3
												{
													OFFSET -3.356201 0.000000 0.000000
													CHANNELS 3 Xrotation Yrotation Zrotation
													JOINT RightHandIndex4
													{
														OFFSET -1.933098 0.000000 0.000000
														CHANNELS 3 Xrotation Yrotation Zrotation
														End Site
														{
															OFFSET 0.000000 0.000000 0.000000
														}
													}
												}
											}
										}
										JOINT RightHandMiddle1
										{
											OFFSET -8.178135 0.000000 0.000000
											CHANNELS 3 Xrotation Yrotation Zrotation
											JOINT RightHandMiddle2
											{
												OFFSET -3.901302 0.000000 0.000000
												CHANNELS 3 Xrotation Yrotation Zrotation
												JOINT RightHandMiddle3
												{
													OFFSET -3.909599 0.000000 0.000000
													CHANNELS 3 Xrotation Yrotation Zrotation
													JOINT RightHandMiddle4
													{
														OFFSET -2.376003 0.000000 0.000000
														CHANNELS 3 Xrotation Yrotation Zrotation
														End Site
														{
															OFFSET 0.000000 0.000000 0.000000
														}
													}
												}
											}
										}
										JOINT RightHandRing1
										{
											OFFSET -7.559013 0.014137 -2.865403
											CHANNELS 3 Xrotation Yrotation Zrotation
											JOINT RightHandRing2
											{
												OFFSET -3.449306 0.000000 0.000000
												CHANNELS 3 Xrotation Yrotation Zrotation
												JOINT RightHandRing3
												{
													OFFSET -3.362106 0.000000 0.000000
													CHANNELS 3 Xrotation Yrotation Zrotation
													JOINT RightHandRing4
													{
														OFFSET -2.076401 0.000000 0.000000
														CHANNELS 3 Xrotation Yrotation Zrotation
														End Site
														{
															OFFSET 0.000000 0.000000 0.000000
														}
													}
												}
											}
										}
									}
								}
							}
						}
					}
				}
			}
		}
	}
	JOINT LeftUpLeg
	{
		OFFSET 10.205400 -3.823500 0.155100
		CHANNELS 3 Xrotation Yrotation Zrotation
		JOINT LeftLeg
		{
			OFFSET 0.708757 -12.982077 0.567790
			CHANNELS 3 Xrotation Yrotation Zrotation
			JOINT LeftFoot
			{
				OFFSET -0.708756 -10.717838 -2.184338
				CHANNELS 3 Xrotation Yrotation Zrotation
				JOINT LeftToeBase
				{
					OFFSET 0.108149 -7.191104 7.560241
					CHANNELS 3 Xrotation Yrotation Zrotation
					JOINT LeftToe_End
					{
						OFFSET 0.070230 0.081724 4.490308
						CHANNELS 3 Xrotation Yrotation Zrotation
						End Site
						{
							OFFSET 0.000000 0.000000 0.000000
						}
					}
				}
			}
		}
	}
	JOINT RightUpLeg
	{
		OFFSET -10.205400 -3.823500 0.005500
		CHANNELS 3 Xrotation Yrotation Zrotation
		JOINT RightLeg
		{
			OFFSET -0.708756 -12.982134 0.610632
			CHANNELS 3 Xrotation Yrotation Zrotation
			JOINT RightFoot
			{
				OFFSET 0.708754 -10.717769 -1.945823
				CHANNELS 3 Xrotation Yrotation Zrotation
				JOINT RightToeBase
				{
					OFFSET -0.108140 -7.191069 7.372968
					CHANNELS 3 Xrotation Yrotation Zrotation
					JOINT RightToe_End
					{
						OFFSET -0.070227 0.081735 4.479403
						CHANNELS 3 Xrotation Yrotation Zrotation
						End Site
						{
							OFFSET 0.000000 0.000000 0.000000
						}
					}
				}
			}
		}
	}
}
MOTION
Frames: 6
Frame Time: 0.016667
0.634750 30.362247 -0.499960 -6.074713 -42.881461 -3.766115 5.853143 4.467565 -1.470140 11.836544 9.037618 -3.083971 0.000000 0.000000 0.000000 11.836548 9.037614 -3.083971 -4.303051 -1.272939 0.206309 -6.271930 20.437787 -0.377164 -0.000000 0.000000 -0.000000 1.392468 -0.696066 -7.877968 0.000000 0.000000 0.000000 -14.260103 2.394345 -63.277079 9.865061 -47.524934 5.927937 16.172822 0.915173 18.795414 9.163614 4.814108 -5.499003 -0.335356 0.032552 0.783672 -0.000005 -0.000009 -0.000002 -0.000003 0.000002 -0.000004 -0.902011 -6.980960 -3.808411 0.033405 0.804247 -16.418969 0.000001 -0.000005 -0.000009 -0.000001 0.000002 -0.000001 1.947855 9.683083 -14.539796 -0.456431 -1.565430 -21.881016 -0.000003 -0.000000 -0.000001 -0.000002 -0.000001 0.000001 2.605834 14.896832 -31.345254 -0.576848 -2.712383 -32.011526 -0.000005 -0.000001 -0.000001 -0.000004 0.000002 0.000001 1.410942 9.461494 9.792706 0.000000 0.000000 0.000000 1.220049 -24.270667 60.532920 -6.660720 41.858422 8.043849 6.225271 12.322343 11.673289 -8.895856 -4.903133 -0.383712 7.904826 -19.192493 -2.856834 0.000019 0.000003 -0.000010 -0.000000 0.000001 0.000002 -1.085507 -1.215492 4.525239 0.142125 -1.115560 16.942636 0.000005 0.000001 0.000001 -0.000000 0.000001 0.000000 -0.663645 -2.903900 12.731586 -0.660552 1.813458 30.578996 -0.000003 0.000002 -0.000001 -0.000000 0.000000 0.000001 2.423626 -7.404562 21.763276 -0.989698 3.764325 37.431154 -0.000007 0.000012 -0.000003 0.000000 0.000001 0.000001 -38.754712 0.675416 17.953185 41.266282 -15.184731 -0.338821 -0.098306 1.087000 -13.040933 -2.319122 -3.216947 0.802951 0.000000 -0.000002 -0.000000 7.906309 -14.580393 -20.692222 34.892937 -4.459881 0.507843 -32.412837 -10.397970 23.876446 -1.784892 -0.356694 0.333205 -0.000001 -0.000003 -0.000000 
0.628859 30.354729 -0.490055 -5.892553 -42.864157 -3.608622 5.803383 4.383627 -1.490478 11.734906 8.869609 -3.113898 0.000000 0.000000 0.000000 11.734900 8.869615 -3.113898 -4.165993 -0.932301 0.146252 -6.156634 20.430136 -0.327627 0.000000 0.000000 0.000000 1.386621 -0.844144 -7.964381 0.000000 0.000000 0.000000 -14.201898 2.560073 -62.985368 9.704266 -47.394474 5.847719 16.129179 0.756307 18.624102 8.640757 4.433212 -5.561600 -0.408229 0.793600 0.350490 -0.000006 -0.000007 -0.000003 -0.000002 -0.000002 -0.000004 -1.041388 -6.906981 -4.872324 0.025678 0.590436 -17.734643 0.000002 -0.000001 -0.000008 0.000005 -0.000001 0.000004 2.035060 9.279536 -16.022055 -0.473444 -1.804208 -24.052853 -0.000003 0.000001 -0.000000 0.000002 -0.000002 0.000002 2.690482 14.538186 -32.911905 -0.496786 -2.772645 -33.741285 -0.000005 -0.000002 -0.000002 0.000002 -0.000000 0.000001 1.382091 9.291167 9.911511 0.000000 0.000000 0.000000 1.351752 -24.130082 60.409834 -6.095267 41.947183 7.777825 6.458515 12.305882 11.387781 -8.420308 -4.538839 0.140668 7.828467 -18.508810 -2.441028 0.000020 0.000005 -0.000009 0.000000 -0.000003 0.000001 -1.150908 -0.748947 3.855739 0.139052 -1.114658 16.972371 0.000007 0.000002 0.000001 0.000001 -0.000001 0.000000 -0.656021 -2.941661 12.234578 -0.660085 1.806536 30.514020 -0.000003 0.000000 -0.000001 -0.000001 -0.000000 -0.000001 2.492891 -7.589659 21.296023 -0.992132 3.759894 37.371155 -0.000008 0.000011 -0.000004 -0.000000 -0.000001 0.000001 -38.898771 0.631987 17.881480 41.324120 -15.113827 -0.324204 -0.126606 1.085809 -13.063823 -2.316092 -3.236146 0.830640 0.000000 -0.000001 -0.000000 7.766363 -14.533478 -20.647689 35.163269 -4.798490 0.459519 -32.511714 -10.469666 23.945692 -1.823519 -0.092424 0.544232 -0.000000 -0.000001 -0.000000 
0.624028 30.348061 -0.478351 -5.655605 -42.790602 -3.406243 5.751855 4.297370 -1.512793 11.629821 8.696601 -3.147941 0.000000 0.000000 0.000000 11.629815 8.696627 -3.147949 -4.189977 -0.576357 0.043484 -6.017094 20.421159 -0.295641 0.000000 0.000000 -0.000000 1.380128 -0.996772 -8.053147 0.000000 0.000000 0.000000 -14.173313 2.709384 -62.680912 9.587322 -47.246710 5.801155 16.163793 0.571955 18.440114 8.124635 4.043965 -5.653114 -0.446823 1.595477 -0.110201 -0.000003 -0.000007 -0.000002 -0.000001 -0.000000 -0.000002 -1.182650 -6.814253 -6.019481 0.012796 0.363567 -19.154354 -0.000004 -0.000004 -0.000009 -0.000005 -0.000002 0.000002 2.116415 8.859750 -17.622216 -0.502092 -2.058221 -26.396195 -0.000001 0.000001 -0.000001 -0.000000 -0.000000 -0.000001 2.764086 14.158169 -34.618254 -0.416512 -2.836976 -35.640057 -0.000005 -0.000002 -0.000004 0.000002 0.000001 0.000003 1.353098 9.120823 10.030848 0.000000 0.000000 0.000000 1.496272 -24.000622 60.284944 -5.499457 42.033141 7.478076 6.779197 12.246906 11.024392 -7.858791 -4.169032 0.765182 7.781550 -17.752266 -1.975151 0.000018 0.000003 -0.000011 -0.000000 -0.000000 0.000001 -1.206871 -0.257590 3.105320 0.136256 -1.127643 16.886254 0.000006 -0.000001 0.000002 0.000000 0.000001 0.000001 -0.647808 -2.986973 11.671370 -0.658990 1.789960 30.358022 -0.000004 0.000002 0.000002 0.000000 -0.000000 -0.000002 2.561826 -7.792032 20.772970 -0.998021 3.749319 37.227150 -0.000007 0.000010 -0.000002 0.000000 0.000001 0.000001 -39.105541 0.583925 17.764724 41.359019 -15.046003 -0.306304 -0.112864 1.075974 -13.077084 -2.306672 -3.273444 0.881113 -0.000000 0.000001 -0.000000 7.647331 -14.488050 -20.567855 35.411389 -5.227397 0.398694 -32.605209 -10.556106 24.040181 -1.878947 0.180797 0.762098 0.000000 0.000001 0.000000 
0.620479 30.341576 -0.464134 -5.367371 -42.663581 -3.171149 5.699531 4.209801 -1.533305 11.522929 8.520899 -3.178271 0.000000 0.000000 0.000000 11.522927 8.520901 -3.178270 -4.372947 -0.187671 -0.099257 -5.842714 20.412140 -0.274204 -0.000001 0.000000 0.000000 1.373128 -1.153261 -8.144446 0.000000 0.000000 0.000000 -14.167248 2.845065 -62.375794 9.516533 -47.090377 5.789333 16.272656 0.371185 18.260282 7.615069 3.647138 -5.772858 -0.452409 2.437061 -0.597097 -0.000003 -0.000009 -0.000002 -0.000001 -0.000002 -0.000004 -1.323905 -6.703284 -7.245807 -0.006518 0.124182 -20.673150 0.000004 -0.000003 -0.000011 0.000004 0.000001 -0.000000 2.188751 8.425093 -19.334479 -0.544326 -2.326887 -28.903086 0.000004 0.000002 -0.000002 -0.000002 0.000001 -0.000000 2.823254 13.758672 -36.457088 -0.336100 -2.906756 -37.699909 -0.000004 -0.000003 -0.000004 0.000001 0.000002 0.000001 1.325422 8.962443 10.136565 0.000000 0.000000 0.000000 1.656987 -23.878761 60.165012 -4.869292 42.117719 7.144445 7.188144 12.148869 10.581801 -7.214433 -3.789433 1.485809 7.762089 -16.923542 -1.462373 0.000021 -0.000001 -0.000014 -0.000000 -0.000006 -0.000001 -1.250330 0.258056 2.275957 0.133626 -1.154123 16.687230 0.000005 0.000002 0.000001 0.000001 0.000001 0.000001 -0.639237 -3.039713 11.043627 -0.657389 1.764003 30.113396 -0.000004 0.000001 -0.000000 -0.000000 -0.000001 -0.000000 2.629512 -8.011476 20.195457 -1.007283 3.732829 37.001245 -0.000007 0.000013 -0.000006 0.000001 0.000002 -0.000002 -39.378493 0.517696 17.615087 41.361997 -15.022108 -0.286066 -0.042989 1.060863 -13.093663 -2.300354 -3.297134 0.942803 0.000000 -0.000005 -0.000000 7.554569 -14.443557 -20.443856 35.625707 -5.745651 0.325906 -32.683637 -10.655206 24.162954 -1.947656 0.463332 0.992026 -0.000000 0.000000 -0.000000 
0.618349 30.333572 -0.447040 -5.032767 -42.482718 -2.916851 5.648394 4.121421 -1.548994 11.417961 8.343452 -3.198492 0.000000 0.000000 0.000000 11.417961 8.343447 -3.198491 -4.712098 0.239336 -0.274421 -5.628822 20.400706 -0.260410 -0.000000 0.000000 -0.000000 1.365564 -1.313364 -8.238651 0.000000 0.000000 0.000000 -14.177987 2.972059 -62.078203 9.495123 -46.935991 5.816228 16.456982 0.166483 18.100732 7.112289 3.243226 -5.920982 -0.426307 3.318945 -1.108797 -0.000009 -0.000003 -0.000003 -0.000006 0.000001 -0.000001 -1.462718 -6.574094 -8.548888 -0.034350 -0.127557 -22.288335 0.000003 -0.000003 -0.000011 0.000002 0.000001 0.000001 2.248031 7.976807 -21.155469 -0.602569 -2.610151 -31.569175 -0.000002 -0.000001 -0.000003 -0.000002 -0.000001 -0.000000 2.863649 13.341480 -38.423854 -0.255408 -2.984422 -39.916438 -0.000007 -0.000001 -0.000003 0.000001 0.000001 -0.000001 1.299702 8.823667 10.220360 0.000000 0.000000 0.000000 1.828196 -23.749589 60.051699 -4.197131 42.197773 6.777256 7.685499 12.020379 10.059066 -6.488059 -3.394479 2.301347 7.769764 -16.020526 -0.905198 0.000021 0.000003 -0.000011 -0.000000 -0.000003 0.000004 -1.276880 0.798076 1.367274 0.131013 -1.194077 16.374858 0.000006 0.000003 0.000001 0.000000 -0.000002 -0.000000 -0.630573 -3.100021 10.351150 -0.655417 1.728634 29.779775 -0.000004 -0.000002 -0.000003 -0.000001 0.000002 -0.000001 2.694748 -8.248332 19.563182 -1.020024 3.710514 36.693224 -0.000007 0.000014 -0.000003 0.000000 0.000002 0.000001 -39.726644 0.416889 17.443750 41.342524 -15.066455 -0.262866 0.086110 1.040458 -13.125545 -2.303819 -3.282709 1.002563 0.000001 0.000001 0.000000 7.496724 -14.400868 -20.267492 35.795246 -6.350921 0.241171 -32.739433 -10.766782 24.321679 -2.021374 0.753930 1.245345 -0.000000 -0.000000 0.000000 
0.616437 30.322891 -0.429247 -4.663465 -42.248111 -2.657043 5.600759 4.032232 -1.559940 11.319467 8.164367 -3.207698 0.000000 0.000000 0.000000 11.319461 8.164379 -3.207700 -5.175427 0.695292 -0.473784 -5.390407 20.377750 -0.249965 -0.000000 -0.000000 0.000000 1.357321 -1.477608 -8.335278 0.000000 0.000000 0.000000 -14.200430 3.094777 -61.787421 9.515688 -46.790143 5.877847 16.704046 -0.022847 17.972707 6.615390 2.834165 -6.093260 -0.374166 4.234682 -1.640075 -0.000009 -0.000007 -0.000010 -0.000001 0.000000 0.000001 -1.596452 -6.429835 -9.913033 -0.071775 -0.389177 -23.980533 0.000002 -0.000001 -0.000012 -0.000000 0.000001 -0.000001 2.290914 7.519088 -23.063112 -0.678217 -2.905075 -34.362801 0.000000 -0.000002 -0.000001 0.000001 -0.000000 -0.000000 2.882386 12.912197 -40.492001 -0.174848 -3.071364 -42.258076 -0.000004 0.000004 0.000001 -0.000004 -0.000002 -0.000003 1.275560 8.698517 10.287007 0.000000 0.000000 0.000000 1.992782 -23.588842 59.940729 -3.483556 42.269087 6.384947 8.251556 11.874615 9.473892 -5.694458 -2.979546 3.194620 7.798532 -15.052822 -0.313808 0.000023 0.000001 -0.000013 0.000003 0.000002 -0.000000 -1.283418 1.358467 0.391537 0.128132 -1.245322 15.966991 0.000007 0.000002 0.000001 -0.000000 -0.000002 -0.000000 -0.622106 -3.166849 9.604102 -0.653378 1.685405 29.371207 -0.000003 0.000004 0.000002 -0.000001 -0.000001 -0.000002 2.756398 -8.500181 18.884589 -1.035807 3.683483 36.315938 -0.000007 0.000013 0.000001 -0.000000 0.000001 0.000001 -40.148204 0.279338 17.257175 41.337480 -15.137740 -0.236695 0.246781 1.014657 -13.155275 -2.310609 -3.254033 1.052075 0.000000 0.000007 -0.000000 7.479750 -14.363398 -20.032764 35.920214 -7.034604 0.144714 -32.774724 -10.888554 24.516197 -2.090877 1.048632 1.533765 0.000000 0.000000 -0.000000 
